<?xml version="1.0" encoding="utf-8"?>
<!-- Generator: Adobe Illustrator 26.2.1, SVG Export Plug-In . SVG Version: 6.00 Build 0)  -->
<svg version="1.1" xmlns="http://www.w3.org/2000/svg" xmlns:xlink="http://www.w3.org/1999/xlink" x="0px" y="0px"
	 viewBox="0 0 796 187" style="enable-background:new 0 0 796 187;" xml:space="preserve">
<style type="text/css">
	.st0{display:none;}
	.st1{fill:#929292;}
	.st2{font-family:'ArialMT';}
	.st3{font-size:82.67px;}
	.st4{fill:#FFFFFF;stroke:#000000;stroke-miterlimit:10;}
	.st5{stroke:#000000;stroke-miterlimit:10;}
	.st6{font-family:'AvenirNext-Bold';}
	.st7{font-size:97.7624px;}
	.st8{fill:#9D1F15;}
</style>
<g id="Copy" class="st0">
</g>
<g id="Normal_Font">
	<text transform="matrix(1.0027 0 0 1 196 175.1562)" class="st1 st2 st3">ENTERPRISES</text>
</g>
<g id="Bold_Font">
	<path class="st4" d="M295,22"/>
	<path class="st5" d="M291.5,17.5"/>
	<path d="M796,34"/>
	<text transform="matrix(0.988 0 0 1 194.1802 99.4883)" class="st6 st7">MARK GRAY</text>
</g>
<g id="Logo">
	<polygon class="st8" points="67.66,18 90,23.21 90,46.55 66.6,56.53 64.28,103.82 56.31,104 40,46.12 	"/>
	<polygon class="st8" points="161.14,49.83 162.11,72.75 139.61,79 123.73,59.12 77.55,69.54 75.24,61.91 126.65,30.71 	"/>
	<polygon class="st8" points="159.5,149.21 138.21,157.76 124.82,138.64 138.27,117.04 113.04,76.98 119.46,72.26 166.02,110.31 	
		"/>
	<polygon class="st8" points="69.31,176.15 53.87,159.18 67.13,139.97 92.06,145.04 120.82,107.43 127.49,111.81 108.04,168.71 	"/>
	<polygon class="st8" points="10.88,95.92 23.82,76.98 45.58,85.43 46.41,110.86 89.65,130.14 86.94,137.63 27.08,131.88 	"/>
</g>
</svg>
